<svg width="64" height="64" viewBox="0 0 64 64" fill="none" xmlns="http://www.w3.org/2000/svg">
<circle cx="32" cy="32" r="32" fill="#F6F6F6"/>
<path d="M45.1549 32.3091C45.1536 31.4399 45.081 30.5722 44.9377 29.7148H32.0234V34.8691H39.4177C39.2552 35.6991 38.929 36.4884 38.4581 37.1909C37.9871 37.8934 37.3809 38.495 36.6749 38.9606V42.3891H41.0863C42.4307 41.0862 43.4874 39.5161 44.1881 37.78C44.8888 36.0439 45.2182 34.1803 45.1549 32.3091Z" fill="#4285F4"/>
<path d="M32.0226 45.7151C35.3574 45.8045 38.6 44.6145 41.0855 42.3894L36.6741 38.9608C35.2902 39.8562 33.6705 40.3178 32.0226 40.2866C30.3027 40.2633 28.6338 39.6987 27.2531 38.6729C25.8723 37.6471 24.8499 36.2123 24.3312 34.5723H19.7598V38.1037C20.8943 40.3868 22.6428 42.3086 24.8089 43.6531C26.9751 44.9976 29.4731 45.7116 32.0226 45.7151Z" fill="#34A853"/>
<path d="M24.3314 34.6173C23.7523 32.9206 23.7523 31.0797 24.3314 29.383V25.8516H19.76C18.7905 27.7562 18.2852 29.863 18.2852 32.0001C18.2852 34.1373 18.7905 36.2441 19.76 38.1487L24.3314 34.6173Z" fill="#FBBC05"/>
<path d="M32.0232 23.7145C33.9778 23.6829 35.8663 24.4219 37.2803 25.7716L41.1889 21.8631C38.7197 19.5314 35.442 18.2489 32.0461 18.2859C29.5014 18.2852 27.0067 18.9924 24.841 20.3286C22.6753 21.6647 20.9241 23.577 19.7832 25.8516L24.3546 29.3831C24.88 27.7553 25.9023 26.333 27.2778 25.3162C28.6533 24.2995 30.3129 23.7393 32.0232 23.7145Z" fill="#EA4335"/>
</svg>
