<svg width="64" height="64" viewBox="0 0 64 64" fill="none" xmlns="http://www.w3.org/2000/svg">
<circle cx="32" cy="32" r="32" fill="#FEE500"/>
<path d="M31.9994 20.5723C24.4252 20.5723 18.2852 25.3813 18.2852 31.3135C18.2852 35.1488 20.8521 38.5141 24.7135 40.4144C24.5034 41.1341 23.3635 45.0442 23.3182 45.3513C23.3182 45.3513 23.2909 45.5821 23.4413 45.6702C23.5918 45.7582 23.7688 45.6898 23.7688 45.6898C24.2002 45.6299 28.7722 42.4398 29.5636 41.8858C30.3541 41.997 31.1681 42.0548 31.9994 42.0548C39.5737 42.0548 45.7137 37.2459 45.7137 31.3135C45.7137 25.3813 39.5737 20.5723 31.9994 20.5723Z" fill="black"/>
</svg>
