<svg width="834" height="405" viewBox="0 0 834 405" fill="none" xmlns="http://www.w3.org/2000/svg">
<path d="M70.2709 243L94.0278 158.469H94.9117L118.669 243H136.017L167.398 129.851H149.276L127.287 217.364H126.293L103.42 129.851H85.5195L62.6466 217.309H61.5968L39.6079 129.851H21.4863L52.8675 243H70.2709Z" fill="#080808"/>
<path d="M253.087 243V228.193H198.612V193.718H248.777V178.967H198.612V144.657H252.479V129.851H181.429V243H253.087Z" fill="#080808"/>
<path d="M341.702 243V228.193H290.487V129.851H273.304V243H341.702Z" fill="#080808"/>
<path d="M448.845 166.702C444.977 142.447 426.082 128.304 402.104 128.304C372.767 128.304 351.22 150.237 351.22 186.425C351.22 222.558 372.657 244.547 402.104 244.547C427.022 244.547 445.254 228.911 448.845 206.536H431.497C428.513 220.9 416.469 228.856 402.27 228.856C382.823 228.856 368.292 213.994 368.292 186.425C368.292 159.022 382.767 143.994 402.27 143.994C416.635 143.994 428.734 152.171 431.497 166.702H448.845Z" fill="#080808"/>
<path d="M565.709 186.425C565.709 150.237 543.997 128.304 514.715 128.304C485.267 128.304 463.72 150.237 463.72 186.425C463.72 222.558 485.267 244.547 514.715 244.547C543.997 244.547 565.709 222.613 565.709 186.425ZM548.638 186.425C548.638 213.939 534.162 228.856 514.715 228.856C495.267 228.856 480.792 213.939 480.792 186.425C480.792 158.911 495.267 143.994 514.715 143.994C534.162 143.994 548.638 158.911 548.638 186.425Z" fill="#080808"/>
<path d="M585.023 243H601.487V161.177H602.426L635.686 242.834H649.277L682.537 161.342H683.587V243H699.995V129.851H679.056L643.2 217.53H641.874L605.962 129.851H585.023V243Z" fill="#080808"/>
<path d="M794.649 243V228.193H740.174V193.718H790.34V178.967H740.174V144.657H794.042V129.851H722.992V243H794.649Z" fill="#080808"/>
<path d="M816.248 232.061L807.906 275.265H821.165L833.707 232.061H816.248Z" fill="#080808"/>
<path d="M70.2709 403L94.0278 318.469H94.9117L118.669 403H136.017L167.398 289.851H149.276L127.287 377.365H126.293L103.42 289.851H85.5195L62.6466 377.309H61.5968L39.6079 289.851H21.4863L52.8675 403H70.2709Z" fill="#080808"/>
<path d="M253.087 403V388.193H198.612V353.718H248.777V338.967H198.612V304.657H252.479V289.851H181.429V403H253.087Z" fill="#080808"/>
<path d="M351.592 319.63C351.15 301.453 335.072 288.304 312.089 288.304C289.271 288.304 271.868 301.232 271.868 320.845C271.868 336.646 283.139 345.818 301.371 350.79L314.686 354.381C326.785 357.585 336.067 361.563 336.122 371.508C336.067 382.503 325.625 389.795 311.15 389.795C298 389.795 287.061 383.939 286.067 371.674H268.829C269.934 392.226 285.846 404.878 311.205 404.878C337.89 404.878 353.139 390.9 353.139 371.674C353.139 351.342 335.072 343.387 320.597 339.851L309.603 336.978C300.652 334.768 288.995 330.569 289.05 319.851C289.05 310.237 297.835 303.166 311.702 303.166C324.63 303.166 333.857 309.188 334.962 319.63H351.592Z" fill="#080808"/>
<path d="M463.355 403L422.692 289.851H402.748L362.085 403H380.317L390.648 373.11H434.737L445.068 403H463.355ZM412.25 310.514H413.134L429.764 358.69H395.62L412.25 310.514Z" fill="#080808"/>
<path d="M457.241 289.851L497.904 403H517.849L558.512 289.851H539.948L508.456 381.895H507.241L475.86 289.851H457.241Z" fill="#080808"/>
<path d="M563.144 358C563.144 351.76 564.224 345.94 566.384 340.54C568.664 335.02 571.724 330.22 575.564 326.14C579.524 322.06 584.084 318.88 589.244 316.6C594.404 314.2 599.924 313 605.804 313C611.924 313 617.684 314.5 623.084 317.5C628.484 320.38 633.344 323.98 637.664 328.3C638.144 328.78 638.384 329.38 638.384 330.1C638.384 330.94 638.084 331.72 637.484 332.44C637.004 333.04 636.284 333.34 635.324 333.34H586.724C586.124 333.94 585.524 334.54 584.924 335.14C584.324 335.62 583.664 336.16 582.944 336.76C578.144 341.8 574.484 347.26 571.964 353.14C569.564 358.9 568.364 364.48 568.364 369.88C568.364 378.4 570.944 385 576.104 389.68C581.384 394.24 588.164 396.52 596.444 396.52C602.924 396.52 608.744 395.38 613.904 393.1C619.064 390.7 623.744 387.58 627.944 383.74C632.144 379.78 635.864 375.34 639.104 370.42C642.464 365.5 645.464 360.46 648.104 355.3V358C648.104 364.24 646.964 370.12 644.684 375.64C642.524 381.04 639.524 385.78 635.684 389.86C631.844 393.94 627.344 397.18 622.184 399.58C617.024 401.86 611.564 403 605.804 403C599.924 403 594.404 401.86 589.244 399.58C584.084 397.18 579.524 393.94 575.564 389.86C571.724 385.78 568.664 381.04 566.384 375.64C564.224 370.12 563.144 364.24 563.144 358ZM587.804 332.26H633.704C634.784 332.26 635.564 331.78 636.044 330.82C636.524 329.74 636.344 328.78 635.504 327.94C632.744 324.58 629.744 322.24 626.504 320.92C623.384 319.6 620.264 318.94 617.144 318.94C613.304 318.94 609.644 319.66 606.164 321.1C602.684 322.42 599.564 323.92 596.804 325.6C593.564 327.52 590.564 329.74 587.804 332.26Z" fill="#080808"/>
<path d="M657.187 403L657.907 402.1H662.767C664.447 402.1 665.587 401.38 666.187 399.94C666.907 398.5 667.267 396.58 667.267 394.18V319.84C667.147 317.68 666.667 315.4 665.827 313L678.247 322.54V327.4C682.087 322.96 686.647 319.48 691.927 316.96C697.327 314.32 703.087 313 709.207 313C712.567 313 716.107 313.6 719.827 314.8C723.667 315.88 727.207 317.38 730.447 319.3C733.687 321.1 736.327 323.2 738.367 325.6C740.527 328 741.607 330.46 741.607 332.98C741.607 334.78 741.187 336.46 740.347 338.02C739.627 339.58 738.547 340.36 737.107 340.36C734.707 340.36 732.907 339.58 731.707 338.02C730.627 336.34 729.667 334.48 728.827 332.44C727.987 330.28 727.267 328.12 726.667 325.96C726.187 323.8 725.827 322.42 725.587 321.82C724.627 319.78 722.647 317.98 719.647 316.42C716.647 314.74 713.167 313.9 709.207 313.9C705.967 313.9 702.547 314.56 698.947 315.88C695.467 317.2 692.227 319.42 689.227 322.54C686.347 325.54 683.887 329.56 681.847 334.6C679.807 339.52 678.607 345.7 678.247 353.14V403H657.187Z" fill="#080808"/>
<g clip-path="url(#clip0_640_1499)">
<path d="M30.5339 104.775L42.3574 4.41504L62.3664 9.77642L50.2991 96.4665L53.0438 97.2019L88.9433 16.8977L123.769 26.2293L114.729 113.731L117.489 114.47L150.384 33.3605L170.392 38.7219L130.452 131.548L95.5965 122.208L104.848 32.6988L102.125 31.9693L65.3524 114.104L30.5339 104.775Z" fill="#080808"/>
<path d="M182.581 72.0217L18.374 28.0225L14.3788 42.9328L178.586 86.9321L182.581 72.0217Z" fill="#080808"/>
</g>
<defs>
<clipPath id="clip0_640_1499">
<rect width="170" height="100" fill="white" transform="translate(25.8818) rotate(15)"/>
</clipPath>
</defs>
</svg>
