<svg width="152" height="40" viewBox="0 0 152 40" fill="none" xmlns="http://www.w3.org/2000/svg">
<g clip-path="url(#clip0_556_115)">
<path d="M11.3261 31.4253L7.99991 8.57611H12.7364L15.1938 28.4233H15.8403L19.0224 8.57611H27.2666L30.4487 28.4233H31.0999L33.5573 8.57611H38.2938L34.9723 31.4253H26.7281L23.474 11.1228H22.8244L19.5703 31.4253H11.3261Z" fill="#080808"/>
<path d="M41.7703 31.4253V8.57611H58.0489V12.5013H46.5428V17.9525H57.03V21.8777H46.5428V27.5299H58.2587V31.4551L41.7703 31.4253Z" fill="#080808"/>
<path d="M70.6866 32.0015C68.7144 32.0015 66.9738 31.6828 65.4649 31.0453C63.956 30.4079 62.7748 29.4957 61.9212 28.3087C61.0697 27.1217 60.644 25.693 60.644 24.0224V23.1008H65.3914V24.0224C65.3914 25.4072 65.8662 26.4461 66.8157 27.139C67.7653 27.8319 69.0556 28.1779 70.6866 28.1768C72.3416 28.1768 73.5771 27.8801 74.3931 27.2866C75.2091 26.6931 75.6166 25.9348 75.6156 25.0116C75.627 24.7257 75.5795 24.4405 75.4761 24.1739C75.3727 23.9073 75.2156 23.6649 75.0145 23.4619C74.6128 23.0684 74.0284 22.7444 73.2614 22.49C72.3448 22.1992 71.4118 21.9628 70.4675 21.7819L69.6269 21.6171C68.0822 21.3276 66.5711 20.8798 65.1174 20.281C63.8652 19.743 62.9037 19.0343 62.2327 18.1551C61.5617 17.2759 61.2283 16.1329 61.2325 14.7261C61.2325 13.3193 61.604 12.1156 62.3469 11.1149C63.0899 10.1143 64.1365 9.34494 65.4868 8.80693C66.8382 8.26788 68.4269 7.99835 70.253 7.99835C72.0792 7.99835 73.7044 8.27887 75.1288 8.83991C76.5511 9.40095 77.6708 10.2383 78.4878 11.352C79.3049 12.4657 79.7098 13.8542 79.7025 15.5174V16.5065H74.9582V15.5174C74.9582 14.6382 74.7698 13.9295 74.3931 13.3915C73.9901 12.8337 73.4213 12.4182 72.7684 12.2046C71.9561 11.9349 71.1038 11.8064 70.2483 11.8246C68.7874 11.8246 67.71 12.0721 67.0161 12.5672C66.6857 12.7891 66.4169 13.0914 66.2348 13.4459C66.0527 13.8005 65.9634 14.1956 65.9752 14.5942C65.9607 15.1214 66.1357 15.6364 66.4683 16.0449C66.8723 16.4922 67.3805 16.832 67.9474 17.0341C68.7643 17.3426 69.6079 17.5744 70.4675 17.7265L71.3064 17.8835C72.935 18.1784 74.5312 18.6311 76.0726 19.2353C77.424 19.7901 78.4774 20.5175 79.2329 21.4177C79.9884 22.3179 80.3661 23.4692 80.3661 24.8718C80.3888 26.2061 79.9711 27.5104 79.1781 28.5819C78.3882 29.6485 77.2685 30.4859 75.8191 31.094C74.3696 31.7021 72.6588 32.0046 70.6866 32.0015Z" fill="#080808"/>
<path d="M82.171 31.4253L88.8249 8.57611H97.1411L103.793 31.4253H98.8754L97.5027 26.401H88.468L87.0937 31.4253H82.171ZM89.5841 22.4162H96.3804L93.3078 11.286H92.6566L89.5841 22.4162Z" fill="#080808"/>
<path d="M109.868 31.4253L103.432 8.57611H108.347L113.698 28.651H114.205L119.555 8.57611H124.469L118.033 31.4253H109.868Z" fill="#080808"/>
<path d="M127.512 31.4253V8.57611H143.79V12.5013H132.293V17.9525H142.781V21.8777H132.293V27.5299H144.008V31.4551L127.512 31.4253Z" fill="#080808"/>
</g>
<defs>
<clipPath id="clip0_556_115">
<rect width="136" height="24" fill="white" transform="translate(8 8)"/>
</clipPath>
</defs>
</svg>
